<svg width="24" height="22" viewBox="0 0 24 22" fill="none" xmlns="http://www.w3.org/2000/svg">
<path d="M6.61672 2.63181C6.3217 2.63181 6.08989 2.67395 5.92131 2.75825C5.76677 2.84254 5.65438 3.0322 5.58414 3.32722C5.52794 3.62225 5.49984 4.09288 5.49984 4.73912V6.8043C5.49984 7.33815 5.41555 7.80176 5.24696 8.19513C5.09243 8.57444 4.90979 8.88352 4.69906 9.12235C4.48833 9.36117 4.29165 9.54381 4.10901 9.67025C4.26355 9.78264 4.44618 9.95825 4.65692 10.1971C4.8817 10.4219 5.07838 10.7028 5.24696 11.04C5.41555 11.3631 5.49984 11.7284 5.49984 12.1358V14.6646C5.49984 15.2968 5.52794 15.7604 5.58414 16.0554C5.65438 16.3504 5.76677 16.5401 5.92131 16.6244C6.08989 16.7087 6.3217 16.7508 6.61672 16.7508H7.39643V19.3218H5.73165C5.33828 19.3218 4.94492 19.3147 4.55155 19.3007C4.17223 19.2866 3.82101 19.2094 3.49789 19.0689C3.17477 18.9424 2.91487 18.6966 2.71818 18.3313C2.53555 17.9801 2.44423 17.4673 2.44423 16.793V13.3159C2.44423 12.8944 2.38101 12.5011 2.25457 12.1358C2.12813 11.7565 1.93848 11.4474 1.6856 11.2086C1.43272 10.9698 1.11662 10.8503 0.737305 10.8503V8.40586C1.11662 8.39181 1.43272 8.27239 1.6856 8.04761C1.93848 7.80878 2.12813 7.50674 2.25457 7.14147C2.38101 6.76215 2.44423 6.36176 2.44423 5.9403V2.61073C2.44423 1.93639 2.53555 1.42361 2.71818 1.07239C2.90082 0.721172 3.14667 0.475319 3.45574 0.334831C3.77887 0.194343 4.13711 0.117074 4.53048 0.103025C4.92384 0.0749275 5.32423 0.0608788 5.73165 0.0608788H7.39643V2.63181H6.61672ZM22.3281 9.85991C22.3281 11.2929 22.1525 12.6345 21.8013 13.8849C21.4641 15.1352 21.0286 16.2451 20.4947 17.2144C19.9609 18.1979 19.3919 19.0057 18.7878 19.6379L16.3644 18.521C16.9123 17.8888 17.404 17.1442 17.8395 16.2872C18.275 15.4443 18.6192 14.489 18.8721 13.4213C19.125 12.3395 19.2514 11.1524 19.2514 9.85991C19.2514 8.56742 19.125 7.38732 18.8721 6.31961C18.6192 5.23786 18.275 4.27551 17.8395 3.43259C17.404 2.57561 16.9123 1.83805 16.3644 1.2199L18.7878 0.0819516C19.3919 0.714148 19.9609 1.52195 20.4947 2.50537C21.0286 3.48878 21.4641 4.60566 21.8013 5.856C22.1525 7.0923 22.3281 8.42693 22.3281 9.85991Z" fill="#00D2DF"/>
</svg>
